<mxfile host="app.diagrams.net" modified="2022-08-03T21:50:23.560Z" agent="5.0 (X11)" etag="3trmzC2qvp2cKPkqJDYM" version="20.2.2" type="github">
  <diagram id="_LDIzzA4whaDLL0F4yO1" name="Page-1">
    <mxGraphModel dx="1422" dy="712" grid="0" gridSize="10" guides="1" tooltips="1" connect="1" arrows="1" fold="1" page="1" pageScale="1" pageWidth="1654" pageHeight="1169" math="0" shadow="0">
      <root>
        <mxCell id="0" />
        <mxCell id="1" parent="0" />
        <mxCell id="1YojeuiARXj40H76-YGO-9" value="created on" style="edgeStyle=none;rounded=0;orthogonalLoop=1;jettySize=auto;html=1;exitX=0;exitY=1;exitDx=0;exitDy=0;entryX=0.5;entryY=0;entryDx=0;entryDy=0;" parent="1" source="1YojeuiARXj40H76-YGO-1" target="1YojeuiARXj40H76-YGO-4" edge="1">
          <mxGeometry relative="1" as="geometry" />
        </mxCell>
        <mxCell id="1YojeuiARXj40H76-YGO-10" value="uploaded on" style="edgeStyle=none;rounded=0;orthogonalLoop=1;jettySize=auto;html=1;exitX=1;exitY=1;exitDx=0;exitDy=0;entryX=0.5;entryY=0;entryDx=0;entryDy=0;" parent="1" source="1YojeuiARXj40H76-YGO-1" target="1YojeuiARXj40H76-YGO-5" edge="1">
          <mxGeometry relative="1" as="geometry" />
        </mxCell>
        <mxCell id="1YojeuiARXj40H76-YGO-11" value="web address" style="edgeStyle=none;rounded=0;orthogonalLoop=1;jettySize=auto;html=1;exitX=0;exitY=0.5;exitDx=0;exitDy=0;entryX=0.5;entryY=0;entryDx=0;entryDy=0;" parent="1" source="1YojeuiARXj40H76-YGO-1" target="1YojeuiARXj40H76-YGO-6" edge="1">
          <mxGeometry relative="1" as="geometry" />
        </mxCell>
        <mxCell id="1YojeuiARXj40H76-YGO-12" value="document reference link" style="edgeStyle=none;rounded=0;orthogonalLoop=1;jettySize=auto;html=1;exitX=1;exitY=0.5;exitDx=0;exitDy=0;entryX=0.5;entryY=0;entryDx=0;entryDy=0;" parent="1" source="1YojeuiARXj40H76-YGO-1" target="1YojeuiARXj40H76-YGO-7" edge="1">
          <mxGeometry relative="1" as="geometry" />
        </mxCell>
        <mxCell id="1YojeuiARXj40H76-YGO-14" style="edgeStyle=none;rounded=0;orthogonalLoop=1;jettySize=auto;html=1;exitX=0;exitY=0.5;exitDx=0;exitDy=0;entryX=1;entryY=0.5;entryDx=0;entryDy=0;startArrow=classic;startFill=1;" parent="1" source="1YojeuiARXj40H76-YGO-1" target="1YojeuiARXj40H76-YGO-13" edge="1">
          <mxGeometry relative="1" as="geometry" />
        </mxCell>
        <mxCell id="1YojeuiARXj40H76-YGO-20" value="type of source" style="edgeStyle=none;rounded=0;orthogonalLoop=1;jettySize=auto;html=1;exitX=1;exitY=0.5;exitDx=0;exitDy=0;startArrow=none;startFill=0;" parent="1" source="1YojeuiARXj40H76-YGO-1" target="1YojeuiARXj40H76-YGO-19" edge="1">
          <mxGeometry relative="1" as="geometry" />
        </mxCell>
        <mxCell id="1YojeuiARXj40H76-YGO-26" style="edgeStyle=none;rounded=0;orthogonalLoop=1;jettySize=auto;html=1;exitX=0;exitY=0;exitDx=0;exitDy=0;entryX=1;entryY=1;entryDx=0;entryDy=0;startArrow=classic;startFill=1;" parent="1" source="1YojeuiARXj40H76-YGO-1" target="1YojeuiARXj40H76-YGO-25" edge="1">
          <mxGeometry relative="1" as="geometry" />
        </mxCell>
        <mxCell id="1YojeuiARXj40H76-YGO-61" style="edgeStyle=none;rounded=0;orthogonalLoop=1;jettySize=auto;html=1;exitX=1;exitY=0;exitDx=0;exitDy=0;entryX=0;entryY=1;entryDx=0;entryDy=0;startArrow=classic;startFill=1;" parent="1" source="1YojeuiARXj40H76-YGO-1" target="1YojeuiARXj40H76-YGO-60" edge="1">
          <mxGeometry relative="1" as="geometry" />
        </mxCell>
        <mxCell id="1YojeuiARXj40H76-YGO-1" value="Document 1" style="ellipse;whiteSpace=wrap;html=1;aspect=fixed;fillColor=#dae8fc;strokeColor=#6c8ebf;" parent="1" vertex="1">
          <mxGeometry x="530" y="492" width="100" height="100" as="geometry" />
        </mxCell>
        <mxCell id="1YojeuiARXj40H76-YGO-3" value="instance of" style="rounded=0;orthogonalLoop=1;jettySize=auto;html=1;exitX=0.5;exitY=0;exitDx=0;exitDy=0;endArrow=none;endFill=0;startArrow=classic;startFill=1;" parent="1" source="1YojeuiARXj40H76-YGO-2" target="1YojeuiARXj40H76-YGO-1" edge="1">
          <mxGeometry relative="1" as="geometry" />
        </mxCell>
        <mxCell id="1YojeuiARXj40H76-YGO-2" value="Document" style="ellipse;whiteSpace=wrap;html=1;aspect=fixed;fillColor=#dae8fc;strokeColor=#6c8ebf;" parent="1" vertex="1">
          <mxGeometry x="530" y="695" width="100" height="100" as="geometry" />
        </mxCell>
        <mxCell id="1YojeuiARXj40H76-YGO-4" value="point in time" style="whiteSpace=wrap;html=1;fillColor=#ffff88;strokeColor=#36393d;" parent="1" vertex="1">
          <mxGeometry x="361" y="733" width="80" height="30" as="geometry" />
        </mxCell>
        <mxCell id="1YojeuiARXj40H76-YGO-5" value="point in time" style="whiteSpace=wrap;html=1;fillColor=#ffff88;strokeColor=#36393d;" parent="1" vertex="1">
          <mxGeometry x="665" y="730" width="80" height="30" as="geometry" />
        </mxCell>
        <mxCell id="1YojeuiARXj40H76-YGO-6" value="URL" style="whiteSpace=wrap;html=1;fillColor=#ffff88;strokeColor=#36393d;" parent="1" vertex="1">
          <mxGeometry x="257" y="733" width="80" height="30" as="geometry" />
        </mxCell>
        <mxCell id="1YojeuiARXj40H76-YGO-7" value="URL" style="whiteSpace=wrap;html=1;fillColor=#ffff88;strokeColor=#36393d;" parent="1" vertex="1">
          <mxGeometry x="777" y="730" width="80" height="30" as="geometry" />
        </mxCell>
        <mxCell id="1YojeuiARXj40H76-YGO-13" value="Project 1" style="ellipse;whiteSpace=wrap;html=1;aspect=fixed;fillColor=#dae8fc;strokeColor=#6c8ebf;" parent="1" vertex="1">
          <mxGeometry x="257" y="502" width="80" height="80" as="geometry" />
        </mxCell>
        <mxCell id="1YojeuiARXj40H76-YGO-15" value="from project" style="text;html=1;align=center;verticalAlign=middle;resizable=0;points=[];autosize=1;strokeColor=none;fillColor=none;" parent="1" vertex="1">
          <mxGeometry x="378" y="555" width="73" height="18" as="geometry" />
        </mxCell>
        <mxCell id="1YojeuiARXj40H76-YGO-16" value="contains" style="text;html=1;align=center;verticalAlign=middle;resizable=0;points=[];autosize=1;strokeColor=none;fillColor=none;" parent="1" vertex="1">
          <mxGeometry x="390" y="523" width="55" height="18" as="geometry" />
        </mxCell>
        <mxCell id="1YojeuiARXj40H76-YGO-18" value="instance of" style="edgeStyle=none;rounded=0;orthogonalLoop=1;jettySize=auto;html=1;exitX=1;exitY=0.5;exitDx=0;exitDy=0;entryX=0;entryY=0.5;entryDx=0;entryDy=0;startArrow=classic;startFill=1;endArrow=none;endFill=0;" parent="1" source="1YojeuiARXj40H76-YGO-17" target="1YojeuiARXj40H76-YGO-13" edge="1">
          <mxGeometry relative="1" as="geometry" />
        </mxCell>
        <mxCell id="1YojeuiARXj40H76-YGO-17" value="Project&amp;nbsp;" style="ellipse;whiteSpace=wrap;html=1;aspect=fixed;fillColor=#dae8fc;strokeColor=#6c8ebf;" parent="1" vertex="1">
          <mxGeometry x="40" y="505" width="80" height="80" as="geometry" />
        </mxCell>
        <mxCell id="1YojeuiARXj40H76-YGO-24" value="web address" style="edgeStyle=none;rounded=0;orthogonalLoop=1;jettySize=auto;html=1;exitX=0.5;exitY=1;exitDx=0;exitDy=0;entryX=0.5;entryY=0;entryDx=0;entryDy=0;startArrow=none;startFill=0;" parent="1" source="1YojeuiARXj40H76-YGO-19" target="1YojeuiARXj40H76-YGO-23" edge="1">
          <mxGeometry relative="1" as="geometry" />
        </mxCell>
        <mxCell id="1YojeuiARXj40H76-YGO-19" value="Type of Source 1" style="ellipse;whiteSpace=wrap;html=1;aspect=fixed;fillColor=#dae8fc;strokeColor=#6c8ebf;" parent="1" vertex="1">
          <mxGeometry x="777" y="490.5" width="103" height="103" as="geometry" />
        </mxCell>
        <mxCell id="1YojeuiARXj40H76-YGO-22" value="instance of" style="edgeStyle=none;rounded=0;orthogonalLoop=1;jettySize=auto;html=1;exitX=0;exitY=0.5;exitDx=0;exitDy=0;entryX=1;entryY=0.5;entryDx=0;entryDy=0;startArrow=classic;startFill=1;endArrow=none;endFill=0;" parent="1" source="1YojeuiARXj40H76-YGO-21" target="1YojeuiARXj40H76-YGO-19" edge="1">
          <mxGeometry relative="1" as="geometry" />
        </mxCell>
        <mxCell id="1YojeuiARXj40H76-YGO-21" value="Source&amp;nbsp;" style="ellipse;whiteSpace=wrap;html=1;aspect=fixed;fillColor=#dae8fc;strokeColor=#6c8ebf;" parent="1" vertex="1">
          <mxGeometry x="987" y="502" width="80" height="80" as="geometry" />
        </mxCell>
        <mxCell id="1YojeuiARXj40H76-YGO-23" value="URL" style="whiteSpace=wrap;html=1;fillColor=#ffff88;strokeColor=#36393d;" parent="1" vertex="1">
          <mxGeometry x="921" y="730" width="80" height="30" as="geometry" />
        </mxCell>
        <mxCell id="1YojeuiARXj40H76-YGO-38" style="edgeStyle=none;rounded=0;orthogonalLoop=1;jettySize=auto;html=1;exitX=0;exitY=0;exitDx=0;exitDy=0;entryX=1;entryY=1;entryDx=0;entryDy=0;startArrow=classic;startFill=1;" parent="1" source="1YojeuiARXj40H76-YGO-25" target="1YojeuiARXj40H76-YGO-37" edge="1">
          <mxGeometry relative="1" as="geometry" />
        </mxCell>
        <mxCell id="1YojeuiARXj40H76-YGO-25" value="Author 1" style="ellipse;whiteSpace=wrap;html=1;aspect=fixed;fillColor=#dae8fc;strokeColor=#6c8ebf;" parent="1" vertex="1">
          <mxGeometry x="319" y="363" width="80" height="80" as="geometry" />
        </mxCell>
        <mxCell id="1YojeuiARXj40H76-YGO-27" value="has published" style="text;html=1;align=center;verticalAlign=middle;resizable=0;points=[];autosize=1;strokeColor=none;fillColor=none;" parent="1" vertex="1">
          <mxGeometry x="382" y="468" width="84" height="18" as="geometry" />
        </mxCell>
        <mxCell id="1YojeuiARXj40H76-YGO-28" value="has author" style="text;html=1;align=center;verticalAlign=middle;resizable=0;points=[];autosize=1;strokeColor=none;fillColor=none;" parent="1" vertex="1">
          <mxGeometry x="441" y="443" width="67" height="18" as="geometry" />
        </mxCell>
        <mxCell id="1YojeuiARXj40H76-YGO-30" value="instance of" style="edgeStyle=none;rounded=0;orthogonalLoop=1;jettySize=auto;html=1;exitX=1;exitY=0.5;exitDx=0;exitDy=0;startArrow=classic;startFill=1;endArrow=none;endFill=0;" parent="1" source="1YojeuiARXj40H76-YGO-29" target="1YojeuiARXj40H76-YGO-25" edge="1">
          <mxGeometry relative="1" as="geometry" />
        </mxCell>
        <mxCell id="1YojeuiARXj40H76-YGO-29" value="Author" style="ellipse;whiteSpace=wrap;html=1;aspect=fixed;fillColor=#dae8fc;strokeColor=#6c8ebf;" parent="1" vertex="1">
          <mxGeometry x="143" y="363" width="80" height="80" as="geometry" />
        </mxCell>
        <mxCell id="1YojeuiARXj40H76-YGO-34" style="edgeStyle=none;rounded=0;orthogonalLoop=1;jettySize=auto;html=1;exitX=1;exitY=1;exitDx=0;exitDy=0;entryX=0.5;entryY=0;entryDx=0;entryDy=0;startArrow=classic;startFill=1;" parent="1" source="1YojeuiARXj40H76-YGO-31" target="1YojeuiARXj40H76-YGO-1" edge="1">
          <mxGeometry relative="1" as="geometry" />
        </mxCell>
        <mxCell id="1YojeuiARXj40H76-YGO-41" style="edgeStyle=none;rounded=0;orthogonalLoop=1;jettySize=auto;html=1;exitX=0;exitY=1;exitDx=0;exitDy=0;entryX=1;entryY=0;entryDx=0;entryDy=0;startArrow=classic;startFill=1;" parent="1" source="1YojeuiARXj40H76-YGO-31" target="1YojeuiARXj40H76-YGO-37" edge="1">
          <mxGeometry relative="1" as="geometry" />
        </mxCell>
        <mxCell id="1YojeuiARXj40H76-YGO-45" value="type of institution" style="edgeStyle=none;rounded=0;orthogonalLoop=1;jettySize=auto;html=1;exitX=0;exitY=0;exitDx=0;exitDy=0;entryX=1;entryY=1;entryDx=0;entryDy=0;startArrow=none;startFill=0;" parent="1" source="1YojeuiARXj40H76-YGO-31" target="1YojeuiARXj40H76-YGO-44" edge="1">
          <mxGeometry relative="1" as="geometry" />
        </mxCell>
        <mxCell id="1YojeuiARXj40H76-YGO-48" value="web address" style="edgeStyle=none;rounded=0;orthogonalLoop=1;jettySize=auto;html=1;exitX=0.5;exitY=0;exitDx=0;exitDy=0;entryX=0.425;entryY=1;entryDx=0;entryDy=0;entryPerimeter=0;startArrow=none;startFill=0;" parent="1" source="1YojeuiARXj40H76-YGO-31" target="1YojeuiARXj40H76-YGO-46" edge="1">
          <mxGeometry relative="1" as="geometry" />
        </mxCell>
        <mxCell id="zQtXLemEPmIMYrfPOFt9-2" style="rounded=0;orthogonalLoop=1;jettySize=auto;html=1;exitX=0.5;exitY=1;exitDx=0;exitDy=0;startArrow=classic;startFill=1;" edge="1" parent="1" source="1YojeuiARXj40H76-YGO-31" target="1YojeuiARXj40H76-YGO-25">
          <mxGeometry relative="1" as="geometry" />
        </mxCell>
        <mxCell id="1YojeuiARXj40H76-YGO-31" value="Institution 1" style="ellipse;whiteSpace=wrap;html=1;aspect=fixed;fillColor=#dae8fc;strokeColor=#6c8ebf;" parent="1" vertex="1">
          <mxGeometry x="343" y="138" width="80" height="80" as="geometry" />
        </mxCell>
        <mxCell id="1YojeuiARXj40H76-YGO-33" value="instance of" style="edgeStyle=none;rounded=0;orthogonalLoop=1;jettySize=auto;html=1;exitX=1;exitY=0.5;exitDx=0;exitDy=0;startArrow=classic;startFill=1;endArrow=none;endFill=0;" parent="1" source="1YojeuiARXj40H76-YGO-32" target="1YojeuiARXj40H76-YGO-31" edge="1">
          <mxGeometry relative="1" as="geometry" />
        </mxCell>
        <mxCell id="1YojeuiARXj40H76-YGO-51" value="instance of" style="edgeStyle=none;rounded=0;orthogonalLoop=1;jettySize=auto;html=1;exitX=0.5;exitY=0;exitDx=0;exitDy=0;entryX=0;entryY=0.5;entryDx=0;entryDy=0;startArrow=classic;startFill=1;endArrow=none;endFill=0;" parent="1" source="1YojeuiARXj40H76-YGO-32" target="1YojeuiARXj40H76-YGO-44" edge="1">
          <mxGeometry relative="1" as="geometry" />
        </mxCell>
        <mxCell id="1YojeuiARXj40H76-YGO-32" value="Institution" style="ellipse;whiteSpace=wrap;html=1;aspect=fixed;fillColor=#dae8fc;strokeColor=#6c8ebf;" parent="1" vertex="1">
          <mxGeometry x="58" y="136" width="80" height="80" as="geometry" />
        </mxCell>
        <mxCell id="1YojeuiARXj40H76-YGO-35" value="has published" style="text;html=1;align=center;verticalAlign=middle;resizable=0;points=[];autosize=1;strokeColor=none;fillColor=none;" parent="1" vertex="1">
          <mxGeometry x="441" y="394" width="84" height="18" as="geometry" />
        </mxCell>
        <mxCell id="1YojeuiARXj40H76-YGO-36" value="published by" style="text;html=1;align=center;verticalAlign=middle;resizable=0;points=[];autosize=1;strokeColor=none;fillColor=none;" parent="1" vertex="1">
          <mxGeometry x="516" y="376" width="77" height="18" as="geometry" />
        </mxCell>
        <mxCell id="1YojeuiARXj40H76-YGO-37" value="Role 1" style="ellipse;whiteSpace=wrap;html=1;aspect=fixed;fillColor=#dae8fc;strokeColor=#6c8ebf;" parent="1" vertex="1">
          <mxGeometry x="151" y="244" width="80" height="80" as="geometry" />
        </mxCell>
        <mxCell id="1YojeuiARXj40H76-YGO-39" value="has role" style="text;html=1;align=center;verticalAlign=middle;resizable=0;points=[];autosize=1;strokeColor=none;fillColor=none;" parent="1" vertex="1">
          <mxGeometry x="215" y="342" width="53" height="18" as="geometry" />
        </mxCell>
        <mxCell id="1YojeuiARXj40H76-YGO-42" value="contains role" style="text;html=1;align=center;verticalAlign=middle;resizable=0;points=[];autosize=1;strokeColor=none;fillColor=none;" parent="1" vertex="1">
          <mxGeometry x="209" y="214" width="78" height="18" as="geometry" />
        </mxCell>
        <mxCell id="1YojeuiARXj40H76-YGO-43" value="role offered in" style="text;html=1;align=center;verticalAlign=middle;resizable=0;points=[];autosize=1;strokeColor=none;fillColor=none;" parent="1" vertex="1">
          <mxGeometry x="274" y="231" width="83" height="18" as="geometry" />
        </mxCell>
        <mxCell id="1YojeuiARXj40H76-YGO-44" value="Type of Institute" style="ellipse;whiteSpace=wrap;html=1;aspect=fixed;fillColor=#dae8fc;strokeColor=#6c8ebf;" parent="1" vertex="1">
          <mxGeometry x="157" y="18" width="80" height="80" as="geometry" />
        </mxCell>
        <mxCell id="1YojeuiARXj40H76-YGO-46" value="URL" style="whiteSpace=wrap;html=1;fillColor=#ffff88;strokeColor=#36393d;" parent="1" vertex="1">
          <mxGeometry x="307" y="32" width="80" height="30" as="geometry" />
        </mxCell>
        <mxCell id="1YojeuiARXj40H76-YGO-55" value="instance of" style="edgeStyle=none;rounded=0;orthogonalLoop=1;jettySize=auto;html=1;exitX=1;exitY=0.5;exitDx=0;exitDy=0;startArrow=classic;startFill=1;endArrow=none;endFill=0;" parent="1" source="1YojeuiARXj40H76-YGO-53" target="1YojeuiARXj40H76-YGO-37" edge="1">
          <mxGeometry relative="1" as="geometry" />
        </mxCell>
        <mxCell id="1YojeuiARXj40H76-YGO-53" value="Role" style="ellipse;whiteSpace=wrap;html=1;aspect=fixed;fillColor=#dae8fc;strokeColor=#6c8ebf;" parent="1" vertex="1">
          <mxGeometry x="7" y="360" width="80" height="80" as="geometry" />
        </mxCell>
        <mxCell id="1YojeuiARXj40H76-YGO-57" value="has employee" style="text;html=1;align=center;verticalAlign=middle;resizable=0;points=[];autosize=1;strokeColor=none;fillColor=none;" parent="1" vertex="1">
          <mxGeometry x="372" y="299" width="85" height="18" as="geometry" />
        </mxCell>
        <mxCell id="1YojeuiARXj40H76-YGO-58" value="author&#39;s institution" style="text;html=1;align=center;verticalAlign=middle;resizable=0;points=[];autosize=1;strokeColor=none;fillColor=none;" parent="1" vertex="1">
          <mxGeometry x="270" y="275" width="106" height="18" as="geometry" />
        </mxCell>
        <mxCell id="1YojeuiARXj40H76-YGO-67" style="edgeStyle=none;rounded=0;orthogonalLoop=1;jettySize=auto;html=1;exitX=1;exitY=0.5;exitDx=0;exitDy=0;startArrow=classic;startFill=1;" parent="1" source="1YojeuiARXj40H76-YGO-60" target="1YojeuiARXj40H76-YGO-66" edge="1">
          <mxGeometry relative="1" as="geometry" />
        </mxCell>
        <mxCell id="1YojeuiARXj40H76-YGO-78" style="edgeStyle=none;rounded=0;orthogonalLoop=1;jettySize=auto;html=1;exitX=1;exitY=0;exitDx=0;exitDy=0;entryX=0.013;entryY=0.638;entryDx=0;entryDy=0;entryPerimeter=0;startArrow=none;startFill=0;" parent="1" source="1YojeuiARXj40H76-YGO-60" target="1YojeuiARXj40H76-YGO-75" edge="1">
          <mxGeometry relative="1" as="geometry" />
        </mxCell>
        <mxCell id="1YojeuiARXj40H76-YGO-81" style="edgeStyle=none;rounded=0;orthogonalLoop=1;jettySize=auto;html=1;exitX=0.5;exitY=0;exitDx=0;exitDy=0;entryX=0.5;entryY=1;entryDx=0;entryDy=0;startArrow=classic;startFill=1;" parent="1" source="1YojeuiARXj40H76-YGO-60" target="1YojeuiARXj40H76-YGO-76" edge="1">
          <mxGeometry relative="1" as="geometry" />
        </mxCell>
        <mxCell id="1YojeuiARXj40H76-YGO-84" style="edgeStyle=none;rounded=0;orthogonalLoop=1;jettySize=auto;html=1;exitX=0.5;exitY=0;exitDx=0;exitDy=0;entryX=0.5;entryY=1;entryDx=0;entryDy=0;startArrow=classic;startFill=1;" parent="1" source="1YojeuiARXj40H76-YGO-60" target="1YojeuiARXj40H76-YGO-77" edge="1">
          <mxGeometry relative="1" as="geometry" />
        </mxCell>
        <mxCell id="1YojeuiARXj40H76-YGO-88" style="edgeStyle=none;rounded=0;orthogonalLoop=1;jettySize=auto;html=1;exitX=0.5;exitY=0;exitDx=0;exitDy=0;entryX=0.5;entryY=1;entryDx=0;entryDy=0;startArrow=classic;startFill=1;" parent="1" source="1YojeuiARXj40H76-YGO-60" target="1YojeuiARXj40H76-YGO-87" edge="1">
          <mxGeometry relative="1" as="geometry" />
        </mxCell>
        <mxCell id="1YojeuiARXj40H76-YGO-60" value="Content Box 1" style="ellipse;whiteSpace=wrap;html=1;aspect=fixed;fillColor=#dae8fc;strokeColor=#6c8ebf;" parent="1" vertex="1">
          <mxGeometry x="676" y="349.5" width="101" height="101" as="geometry" />
        </mxCell>
        <mxCell id="1YojeuiARXj40H76-YGO-62" value="has content box" style="text;html=1;align=center;verticalAlign=middle;resizable=0;points=[];autosize=1;strokeColor=none;fillColor=none;" parent="1" vertex="1">
          <mxGeometry x="640" y="480.5" width="95" height="18" as="geometry" />
        </mxCell>
        <mxCell id="1YojeuiARXj40H76-YGO-63" value="part of" style="text;html=1;align=center;verticalAlign=middle;resizable=0;points=[];autosize=1;strokeColor=none;fillColor=none;" parent="1" vertex="1">
          <mxGeometry x="607" y="456.5" width="44" height="18" as="geometry" />
        </mxCell>
        <mxCell id="1YojeuiARXj40H76-YGO-65" value="instance of" style="edgeStyle=none;rounded=0;orthogonalLoop=1;jettySize=auto;html=1;exitX=1;exitY=0.5;exitDx=0;exitDy=0;entryX=0;entryY=0;entryDx=0;entryDy=0;startArrow=none;startFill=0;" parent="1" source="1YojeuiARXj40H76-YGO-64" target="1YojeuiARXj40H76-YGO-60" edge="1">
          <mxGeometry relative="1" as="geometry" />
        </mxCell>
        <mxCell id="1YojeuiARXj40H76-YGO-91" value="instance of" style="edgeStyle=none;rounded=0;orthogonalLoop=1;jettySize=auto;html=1;exitX=0.5;exitY=0;exitDx=0;exitDy=0;entryX=0;entryY=0.5;entryDx=0;entryDy=0;startArrow=classic;startFill=1;endArrow=none;endFill=0;" parent="1" source="1YojeuiARXj40H76-YGO-64" target="1YojeuiARXj40H76-YGO-87" edge="1">
          <mxGeometry relative="1" as="geometry" />
        </mxCell>
        <mxCell id="1YojeuiARXj40H76-YGO-64" value="Content Box" style="ellipse;whiteSpace=wrap;html=1;aspect=fixed;fillColor=#dae8fc;strokeColor=#6c8ebf;" parent="1" vertex="1">
          <mxGeometry x="493" y="241" width="80" height="80" as="geometry" />
        </mxCell>
        <mxCell id="1YojeuiARXj40H76-YGO-72" value="has definition" style="edgeStyle=none;rounded=0;orthogonalLoop=1;jettySize=auto;html=1;exitX=1;exitY=0.5;exitDx=0;exitDy=0;entryX=0;entryY=0.5;entryDx=0;entryDy=0;startArrow=none;startFill=0;" parent="1" source="1YojeuiARXj40H76-YGO-66" target="1YojeuiARXj40H76-YGO-71" edge="1">
          <mxGeometry relative="1" as="geometry" />
        </mxCell>
        <mxCell id="1YojeuiARXj40H76-YGO-73" value="has identifier" style="edgeStyle=none;rounded=0;orthogonalLoop=1;jettySize=auto;html=1;exitX=1;exitY=1;exitDx=0;exitDy=0;entryX=0;entryY=0.5;entryDx=0;entryDy=0;startArrow=none;startFill=0;" parent="1" source="1YojeuiARXj40H76-YGO-66" target="1YojeuiARXj40H76-YGO-70" edge="1">
          <mxGeometry relative="1" as="geometry" />
        </mxCell>
        <mxCell id="1YojeuiARXj40H76-YGO-66" value="Topic" style="ellipse;whiteSpace=wrap;html=1;aspect=fixed;fillColor=#dae8fc;strokeColor=#6c8ebf;" parent="1" vertex="1">
          <mxGeometry x="885" y="360" width="80" height="80" as="geometry" />
        </mxCell>
        <mxCell id="1YojeuiARXj40H76-YGO-68" value="has topic" style="text;html=1;align=center;verticalAlign=middle;resizable=0;points=[];autosize=1;strokeColor=none;fillColor=none;" parent="1" vertex="1">
          <mxGeometry x="798" y="408" width="58" height="18" as="geometry" />
        </mxCell>
        <mxCell id="1YojeuiARXj40H76-YGO-69" value="mentioned in" style="text;html=1;align=center;verticalAlign=middle;resizable=0;points=[];autosize=1;strokeColor=none;fillColor=none;" parent="1" vertex="1">
          <mxGeometry x="789" y="379" width="79" height="18" as="geometry" />
        </mxCell>
        <mxCell id="1YojeuiARXj40H76-YGO-70" value="external identifier" style="whiteSpace=wrap;html=1;fillColor=#ffff88;strokeColor=#36393d;" parent="1" vertex="1">
          <mxGeometry x="1077" y="450.5" width="80" height="30" as="geometry" />
        </mxCell>
        <mxCell id="1YojeuiARXj40H76-YGO-71" value="string" style="whiteSpace=wrap;html=1;fillColor=#ffff88;strokeColor=#36393d;" parent="1" vertex="1">
          <mxGeometry x="1077" y="385" width="80" height="30" as="geometry" />
        </mxCell>
        <mxCell id="1YojeuiARXj40H76-YGO-107" value="has text" style="edgeStyle=none;rounded=0;orthogonalLoop=1;jettySize=auto;html=1;exitX=1;exitY=0.5;exitDx=0;exitDy=0;entryX=0.5;entryY=1;entryDx=0;entryDy=0;startArrow=none;startFill=0;" parent="1" source="1YojeuiARXj40H76-YGO-75" target="1YojeuiARXj40H76-YGO-95" edge="1">
          <mxGeometry relative="1" as="geometry" />
        </mxCell>
        <mxCell id="1YojeuiARXj40H76-YGO-75" value="Paragraph 1" style="ellipse;whiteSpace=wrap;html=1;aspect=fixed;fillColor=#dae8fc;strokeColor=#6c8ebf;" parent="1" vertex="1">
          <mxGeometry x="974" y="267" width="80" height="80" as="geometry" />
        </mxCell>
        <mxCell id="1YojeuiARXj40H76-YGO-108" value="has table" style="edgeStyle=none;rounded=0;orthogonalLoop=1;jettySize=auto;html=1;exitX=1;exitY=0.5;exitDx=0;exitDy=0;entryX=0.5;entryY=1;entryDx=0;entryDy=0;startArrow=none;startFill=0;" parent="1" source="1YojeuiARXj40H76-YGO-76" target="1YojeuiARXj40H76-YGO-94" edge="1">
          <mxGeometry relative="1" as="geometry" />
        </mxCell>
        <mxCell id="1YojeuiARXj40H76-YGO-76" value="Table 1" style="ellipse;whiteSpace=wrap;html=1;aspect=fixed;fillColor=#dae8fc;strokeColor=#6c8ebf;" parent="1" vertex="1">
          <mxGeometry x="905" y="176" width="80" height="80" as="geometry" />
        </mxCell>
        <mxCell id="1YojeuiARXj40H76-YGO-109" value="has figure" style="edgeStyle=none;rounded=0;orthogonalLoop=1;jettySize=auto;html=1;exitX=1;exitY=0;exitDx=0;exitDy=0;entryX=0.5;entryY=1;entryDx=0;entryDy=0;startArrow=none;startFill=0;" parent="1" source="1YojeuiARXj40H76-YGO-77" target="1YojeuiARXj40H76-YGO-93" edge="1">
          <mxGeometry relative="1" as="geometry" />
        </mxCell>
        <mxCell id="1YojeuiARXj40H76-YGO-77" value="Figure 1" style="ellipse;whiteSpace=wrap;html=1;aspect=fixed;fillColor=#dae8fc;strokeColor=#6c8ebf;" parent="1" vertex="1">
          <mxGeometry x="745" y="136" width="89" height="89" as="geometry" />
        </mxCell>
        <mxCell id="1YojeuiARXj40H76-YGO-79" value="has paragraph" style="text;html=1;align=center;verticalAlign=middle;resizable=0;points=[];autosize=1;strokeColor=none;fillColor=none;" parent="1" vertex="1">
          <mxGeometry x="874" y="339" width="87" height="18" as="geometry" />
        </mxCell>
        <mxCell id="1YojeuiARXj40H76-YGO-80" value="part of" style="text;html=1;align=center;verticalAlign=middle;resizable=0;points=[];autosize=1;strokeColor=none;fillColor=none;" parent="1" vertex="1">
          <mxGeometry x="887" y="309" width="44" height="18" as="geometry" />
        </mxCell>
        <mxCell id="1YojeuiARXj40H76-YGO-82" value="has table" style="text;html=1;align=center;verticalAlign=middle;resizable=0;points=[];autosize=1;strokeColor=none;fillColor=none;" parent="1" vertex="1">
          <mxGeometry x="785" y="324" width="59" height="18" as="geometry" />
        </mxCell>
        <mxCell id="1YojeuiARXj40H76-YGO-83" value="part of" style="text;html=1;align=center;verticalAlign=middle;resizable=0;points=[];autosize=1;strokeColor=none;fillColor=none;" parent="1" vertex="1">
          <mxGeometry x="759" y="303" width="44" height="18" as="geometry" />
        </mxCell>
        <mxCell id="1YojeuiARXj40H76-YGO-85" value="has figure" style="text;html=1;align=center;verticalAlign=middle;resizable=0;points=[];autosize=1;strokeColor=none;fillColor=none;" parent="1" vertex="1">
          <mxGeometry x="771" y="261" width="63" height="18" as="geometry" />
        </mxCell>
        <mxCell id="1YojeuiARXj40H76-YGO-86" value="part of" style="text;html=1;align=center;verticalAlign=middle;resizable=0;points=[];autosize=1;strokeColor=none;fillColor=none;" parent="1" vertex="1">
          <mxGeometry x="727" y="246" width="44" height="18" as="geometry" />
        </mxCell>
        <mxCell id="1YojeuiARXj40H76-YGO-87" value="Content Box 2" style="ellipse;whiteSpace=wrap;html=1;aspect=fixed;fillColor=#dae8fc;strokeColor=#6c8ebf;" parent="1" vertex="1">
          <mxGeometry x="582.5" y="113" width="80" height="80" as="geometry" />
        </mxCell>
        <mxCell id="1YojeuiARXj40H76-YGO-89" value="has content box" style="text;html=1;align=center;verticalAlign=middle;resizable=0;points=[];autosize=1;strokeColor=none;fillColor=none;" parent="1" vertex="1">
          <mxGeometry x="645" y="226" width="95" height="18" as="geometry" />
        </mxCell>
        <mxCell id="1YojeuiARXj40H76-YGO-90" value="part of" style="text;html=1;align=center;verticalAlign=middle;resizable=0;points=[];autosize=1;strokeColor=none;fillColor=none;" parent="1" vertex="1">
          <mxGeometry x="611" y="246" width="44" height="18" as="geometry" />
        </mxCell>
        <mxCell id="1YojeuiARXj40H76-YGO-93" value="Commons Media File" style="whiteSpace=wrap;html=1;fillColor=#ffff88;strokeColor=#36393d;" parent="1" vertex="1">
          <mxGeometry x="838" y="43" width="80" height="30" as="geometry" />
        </mxCell>
        <mxCell id="1YojeuiARXj40H76-YGO-94" value="Tabular Data" style="whiteSpace=wrap;html=1;fillColor=#ffff88;strokeColor=#36393d;" parent="1" vertex="1">
          <mxGeometry x="1113" y="108" width="80" height="30" as="geometry" />
        </mxCell>
        <mxCell id="1YojeuiARXj40H76-YGO-95" value="string" style="whiteSpace=wrap;html=1;fillColor=#ffff88;strokeColor=#36393d;" parent="1" vertex="1">
          <mxGeometry x="1123" y="208" width="80" height="30" as="geometry" />
        </mxCell>
        <mxCell id="1YojeuiARXj40H76-YGO-117" value="instance of" style="edgeStyle=none;rounded=0;orthogonalLoop=1;jettySize=auto;html=1;exitX=0;exitY=0.5;exitDx=0;exitDy=0;entryX=1;entryY=1;entryDx=0;entryDy=0;startArrow=classic;startFill=1;endArrow=none;endFill=0;" parent="1" source="1YojeuiARXj40H76-YGO-111" target="1YojeuiARXj40H76-YGO-75" edge="1">
          <mxGeometry relative="1" as="geometry" />
        </mxCell>
        <mxCell id="1YojeuiARXj40H76-YGO-111" value="Paragraph" style="ellipse;whiteSpace=wrap;html=1;aspect=fixed;fillColor=#dae8fc;strokeColor=#6c8ebf;" parent="1" vertex="1">
          <mxGeometry x="1153" y="296" width="80" height="80" as="geometry" />
        </mxCell>
        <mxCell id="1YojeuiARXj40H76-YGO-116" value="instance of" style="edgeStyle=none;rounded=0;orthogonalLoop=1;jettySize=auto;html=1;exitX=0;exitY=1;exitDx=0;exitDy=0;entryX=0.5;entryY=0;entryDx=0;entryDy=0;startArrow=classic;startFill=1;endArrow=none;endFill=0;" parent="1" source="1YojeuiARXj40H76-YGO-112" target="1YojeuiARXj40H76-YGO-76" edge="1">
          <mxGeometry relative="1" as="geometry" />
        </mxCell>
        <mxCell id="1YojeuiARXj40H76-YGO-112" value="Table" style="ellipse;whiteSpace=wrap;html=1;aspect=fixed;fillColor=#dae8fc;strokeColor=#6c8ebf;" parent="1" vertex="1">
          <mxGeometry x="974" y="35" width="80" height="80" as="geometry" />
        </mxCell>
        <mxCell id="1YojeuiARXj40H76-YGO-115" value="instance of" style="edgeStyle=none;rounded=0;orthogonalLoop=1;jettySize=auto;html=1;exitX=0.5;exitY=1;exitDx=0;exitDy=0;startArrow=classic;startFill=1;endArrow=none;endFill=0;" parent="1" source="1YojeuiARXj40H76-YGO-113" target="1YojeuiARXj40H76-YGO-77" edge="1">
          <mxGeometry relative="1" as="geometry" />
        </mxCell>
        <mxCell id="1YojeuiARXj40H76-YGO-113" value="Figure" style="ellipse;whiteSpace=wrap;html=1;aspect=fixed;fillColor=#dae8fc;strokeColor=#6c8ebf;" parent="1" vertex="1">
          <mxGeometry x="670" y="25" width="80" height="80" as="geometry" />
        </mxCell>
        <mxCell id="zQtXLemEPmIMYrfPOFt9-3" value="role taken by" style="text;html=1;align=center;verticalAlign=middle;resizable=0;points=[];autosize=1;strokeColor=none;fillColor=none;" vertex="1" parent="1">
          <mxGeometry x="251" y="316" width="86" height="26" as="geometry" />
        </mxCell>
      </root>
    </mxGraphModel>
  </diagram>
</mxfile>
